<svg width="80" height="80" viewBox="0 0 80 80" fill="none" xmlns="http://www.w3.org/2000/svg">
<path fill-rule="evenodd" clip-rule="evenodd" d="M40 0C17.9107 0 0 18.3581 0 41.02C0 59.146 11.4643 74.5039 27.3571 79.9328C29.3571 80.3078 30.0893 79.0399 30.0893 77.9505C30.0893 76.9683 30.0536 74.3968 30.0357 70.968C18.9107 73.4503 16.5536 65.4677 16.5536 65.4677C14.7321 60.7353 12.1071 59.4674 12.1071 59.4674C8.48214 56.9137 12.375 56.9673 12.375 56.9673C16.3929 57.253 18.5 61.1997 18.5 61.1997C22.0714 67.4678 27.8571 65.6642 30.1429 64.6105C30.5 61.9676 31.5357 60.146 32.6786 59.1281C23.8036 58.0924 14.4643 54.5743 14.4643 38.8592C14.4643 34.3768 16.0179 30.7159 18.5714 27.8586C18.1607 26.8228 16.7857 22.6441 18.9643 17.0009C18.9643 17.0009 22.3214 15.8937 29.9643 21.1975C33.1607 20.2868 36.5714 19.8403 39.9821 19.8225C43.375 19.8403 46.8036 20.2868 50 21.1975C57.6429 15.8937 60.9821 17.0009 60.9821 17.0009C63.1607 22.6441 61.7857 26.8228 61.375 27.8586C63.9286 30.7338 65.4821 34.3947 65.4821 38.8592C65.4821 54.61 56.125 58.0745 47.2143 59.0924C48.6429 60.3603 49.9286 62.8605 49.9286 66.6821C49.9286 72.1645 49.875 76.5933 49.875 77.9327C49.875 79.022 50.5893 80.3078 52.625 79.8971C68.5536 74.4861 80 59.1281 80 41.02C80 18.3581 62.0893 0 40 0Z" fill="#313131"/>
</svg>
