<svg width="80" height="80" viewBox="0 0 80 80" fill="none" xmlns="http://www.w3.org/2000/svg">
<path d="M39.7882 23.5625C29.9117 23.5625 21.7283 31.6048 21.7283 41.6225C21.7283 51.6401 29.7706 59.6824 39.7882 59.6824C49.8059 59.6824 57.8482 51.499 57.8482 41.6225C57.8482 31.7459 49.6648 23.5625 39.7882 23.5625ZM39.7882 53.1921C33.439 53.1921 28.2186 47.9717 28.2186 41.6225C28.2186 35.2733 33.439 30.0528 39.7882 30.0528C46.1374 30.0528 51.3579 35.2733 51.3579 41.6225C51.3579 47.9717 46.1374 53.1921 39.7882 53.1921Z" fill="#313131"/>
<path d="M58.5536 27.2308C60.8134 27.2308 62.6453 25.3989 62.6453 23.1391C62.6453 20.8793 60.8134 19.0474 58.5536 19.0474C56.2938 19.0474 54.4619 20.8793 54.4619 23.1391C54.4619 25.3989 56.2938 27.2308 58.5536 27.2308Z" fill="#313131"/>
<path d="M69.1357 12.5573C65.4673 8.74777 60.2468 6.77246 54.3209 6.77246H25.2557C12.9805 6.77246 4.79712 14.9559 4.79712 27.231V56.1552C4.79712 62.2222 6.77243 67.4427 10.723 71.2522C14.5326 74.9206 19.6119 76.7548 25.3968 76.7548H54.1798C60.2469 76.7548 65.3262 74.7795 68.9946 71.2522C72.8042 67.5838 74.7795 62.3633 74.7795 56.2963V27.231C74.7795 21.3051 72.8042 16.2257 69.1357 12.5573ZM68.5714 56.2963C68.5714 60.6702 67.0193 64.1975 64.4797 66.5961C61.94 68.9947 58.4126 70.2645 54.1798 70.2645H25.3968C21.164 70.2645 17.6366 68.9947 15.0969 66.5961C12.5573 64.0564 11.2874 60.5291 11.2874 56.1552V27.231C11.2874 22.9982 12.5573 19.4709 15.0969 16.9312C17.4955 14.5326 21.164 13.2628 25.3968 13.2628H54.462C58.6948 13.2628 62.2222 14.5326 64.7618 17.0723C67.1604 19.612 68.5714 23.1393 68.5714 27.231V56.2963Z" fill="#313131"/>
</svg>
