<svg width="80" height="80" viewBox="0 0 80 80" fill="none" xmlns="http://www.w3.org/2000/svg">
<path d="M42.4333 38.2424V38.1338C42.4108 38.1705 42.3868 38.2072 42.3628 38.2424H42.4333Z" fill="#313131"/>
<path d="M69.5183 6.58545H10.0824C7.23758 6.58545 4.93042 8.83758 4.93042 11.6132V71.7448C4.93042 74.5191 7.23758 76.7712 10.0824 76.7712H69.5183C72.3673 76.7712 74.6745 74.5176 74.6745 71.7448V11.6132C74.6745 8.83617 72.3659 6.58545 69.5183 6.58545ZM26.0702 65.3398H15.5363V33.6477H26.0702V65.3398ZM20.804 29.3184H20.7334C17.2 29.3184 14.914 26.8843 14.914 23.8433C14.914 20.7346 17.2706 18.3682 20.8731 18.3682C24.4771 18.3682 26.694 20.7346 26.7645 23.8433C26.7645 26.8843 24.4757 29.3184 20.804 29.3184ZM64.0559 65.3398H53.522V48.3811C53.522 44.1224 51.998 41.2155 48.1866 41.2155C45.2768 41.2155 43.544 43.1755 42.7806 45.0692C42.5026 45.7451 42.4349 46.6906 42.4349 47.6388V65.3384H31.9009C31.9009 65.3384 32.0392 36.6167 31.9009 33.6463H42.4349V38.1322C43.8347 35.9732 46.338 32.8984 51.9302 32.8984C58.8602 32.8984 64.0573 37.4295 64.0573 47.1647L64.0559 65.3398Z" fill="#313131"/>
</svg>
